<svg xmlns="http://www.w3.org/2000/svg" viewBox="0 0 200 64" role="img" aria-labelledby="title desc"><defs><linearGradient id="hookah-accent" x1="12" y1="0" x2="108" y2="0" gradientUnits="userSpaceOnUse"><stop offset="0" stop-color="#BA3668"/><stop offset=".52" stop-color="#E32F41"/><stop offset="1" stop-color="#F57E48"/></linearGradient></defs><style>
.cell-glint{opacity:0;animation:hookah-cell-glint 5.4s ease-in-out infinite}
.cell-glint-2{animation-delay:1.8s}.cell-glint-3{animation-delay:3.6s}
@keyframes hookah-cell-glint{0%,7%,34%,100%{opacity:0}13%,24%{opacity:.24}}
@media(prefers-reduced-motion:reduce){.cell-glint{animation:none!important;opacity:0!important}}
</style><title id="title">Hookah POS by AlphaSat</title><desc id="desc">Hookah POS lockup with a screenshot-referenced warm accent gradient and secondary AlphaSat attribution</desc><g transform="translate(-0.15 7.5) scale(.5 .46)"><path fill="url(#hookah-accent)" d="M60 5 83.38 18.5v27L60 59 36.62 45.5v-27z"/><path class="cell-glint cell-glint-1" fill="#FFFFFF" d="M60 5 83.38 18.5v27L60 59 36.62 45.5v-27z" aria-hidden="true"/><path fill="url(#hookah-accent)" d="m36 47 23.38 13.5v27L36 101 12.62 87.5v-27z"/><path class="cell-glint cell-glint-2" fill="#FFFFFF" d="m36 47 23.38 13.5v27L36 101 12.62 87.5v-27z" aria-hidden="true"/><path fill="url(#hookah-accent)" d="m84 47 23.38 13.5v27L84 101 60.62 87.5v-27z"/><path class="cell-glint cell-glint-3" fill="#FFFFFF" d="m84 47 23.38 13.5v27L84 101 60.62 87.5v-27z" aria-hidden="true"/></g><g fill="#F3F5F8"><text x="65.84" y="31" textLength="128.00" lengthAdjust="spacing" font-family="Manrope,Arial,sans-serif" font-size="21" font-weight="700">Hookah POS</text><text x="66.84" y="49" textLength="57.00" lengthAdjust="spacing" font-family="Arial,sans-serif" font-size="10" font-weight="500" letter-spacing=".3">by AlphaSat</text></g></svg>